<?xml version="1.0" encoding="UTF-8"?>
<svg version="1.1" xmlns="http://www.w3.org/2000/svg" width="1248" height="832">
<path d="M0 0 C411.84 0 823.68 0 1248 0 C1248 274.56 1248 549.12 1248 832 C836.16 832 424.32 832 0 832 C0 557.44 0 282.88 0 0 Z " fill="#FDFEFE" transform="translate(0,0)"/>
<path d="M0 0 C12.01876533 7.4516345 12.01876533 7.4516345 14.125 13.9375 C14.7128125 13.69515625 15.300625 13.4528125 15.90625 13.203125 C34.87144385 6.11842615 54.30636336 5.54531314 74.3125 5.5 C75.83792419 5.49087585 75.83792419 5.49087585 77.39416504 5.48156738 C96.36490446 5.40749574 114.59045051 7.25330278 132.9375 12.25 C134.08347656 12.55703857 135.22945312 12.86407715 136.41015625 13.18041992 C166.15469976 21.31684801 194.06111704 36.61743538 216.66015625 57.66015625 C218.68702758 59.53284403 220.7443532 61.31147846 222.875 63.0625 C226.71884341 66.32061489 229.87670372 70.10058627 233.125 73.9375 C234.82273155 75.85566594 236.52388149 77.76975904 238.24121094 79.67041016 C240.125 81.9375 240.125 81.9375 241.73950195 84.50146484 C244.40933651 88.54255745 246.38085117 91.48067606 251.20288086 92.74365234 C254.79454486 92.93156281 258.2833962 92.8743244 261.875 92.6875 C277.921942 92.04907328 289.11187142 97.83268978 300.93359375 108.58203125 C305.59022716 113.5531386 308.39867627 119.75936024 311.125 125.9375 C311.53431763 126.84713501 311.53431763 126.84713501 311.9519043 127.77514648 C314.11328161 132.95024811 314.63438384 137.5437335 314.5625 143.125 C314.55114014 144.37011353 314.55114014 144.37011353 314.53955078 145.64038086 C314.15644731 160.09344854 308.25845324 172.19538805 298.546875 182.75390625 C293.74528652 187.08308038 286.68643238 192.9375 280.125 192.9375 C280.125 193.5975 280.125 194.2575 280.125 194.9375 C274.40332624 196.1420629 268.75771203 196.15740194 262.9375 196.1875 C261.47086914 196.2184375 261.47086914 196.2184375 259.97460938 196.25 C245.99013473 196.32394303 235.07759886 191.76103688 224.875 182.1875 C212.98680658 169.56697433 209.63184576 156.02073476 209.921875 139.12109375 C210.33751649 127.7036249 216.15710291 116.44346309 223.7578125 108.01953125 C226.125 105.9375 226.125 105.9375 228.125 105.9375 C227.465 103.6275 226.805 101.3175 226.125 98.9375 C225.465 98.9375 224.805 98.9375 224.125 98.9375 C222.93359375 97.35546875 222.93359375 97.35546875 221.5625 95.125 C196.54177273 56.60388033 154.79507495 35.0151415 110.9375 25.5625 C110.22102295 25.40692627 109.5045459 25.25135254 108.76635742 25.09106445 C97.3017784 22.78390202 85.65064524 22.73210117 74 22.75 C72.90650742 22.75090637 72.90650742 22.75090637 71.79092407 22.75183105 C53.65907341 22.79257623 36.83415434 25.12947725 19.125 28.9375 C19.03863281 29.63875 18.95226562 30.34 18.86328125 31.0625 C17.87095822 37.76295643 16.23507795 42.55579572 12.125 47.9375 C11.21621094 49.18466797 11.21621094 49.18466797 10.2890625 50.45703125 C5.64000934 55.78581962 -0.87833306 58.79659702 -7.90234375 59.45703125 C-16.72412188 59.86698447 -23.975489 58.81776966 -31.015625 53.2421875 C-37.01346049 47.75527874 -41.25476883 41.71273114 -42.31640625 33.5390625 C-42.64101847 23.88446666 -40.79786713 16.362609 -34.875 8.6875 C-25.95893437 -0.60636502 -12.39876892 -4.54525636 0 0 Z " fill="#11BDC3" transform="translate(487.875,242.0625)"/>
<path d="M0 0 C4.65825223 3.24386541 8.54137985 6.80957968 11 12 C11.34417969 12.71542969 11.68835938 13.43085938 12.04296875 14.16796875 C14.52691671 21.518427 14.26159054 31.40684407 11.0625 38.5 C6.83063084 45.56900961 0.58629982 51.42593665 -7.48046875 53.6015625 C-15.35772282 54.84726779 -23.9747133 55.26852863 -31 51 C-38.24576271 45.50847458 -38.24576271 45.50847458 -40 42 C-66.37795348 44.45376311 -89.97727106 62.9964434 -109 80 C-108.4554848 82.31051043 -107.85086068 84.35968896 -106.9375 86.5625 C-104.36459599 95.99648138 -106.0912297 103.80576733 -110.75 112.125 C-115.72228988 118.47848151 -121.90175555 123.66974083 -130 125 C-139.80814918 125.83561047 -146.88172115 124.33120248 -154.75 118.375 C-160.32320464 113.29431112 -163.58091185 105.74737566 -164.23828125 98.30078125 C-164.48952504 88.18491301 -162.01912656 81.19928661 -155.03125 73.796875 C-148.30666436 67.84820308 -141.92340847 66.44372174 -133.078125 66.62890625 C-130 67 -130 67 -126.921875 68.08984375 C-123.67947992 69.09984115 -122.17432083 69.13746496 -119 68 C-117.14482753 66.51625125 -117.14482753 66.51625125 -115.5 64.5625 C-98.80989404 47.05824253 -69.47180018 28.35872773 -45 26 C-45.12375 25.0925 -45.2475 24.185 -45.375 23.25 C-45.34737488 16.45422125 -41.42290581 9.89920354 -37.171875 4.8125 C-26.36545907 -5.37891665 -13.04306089 -6.65780123 0 0 Z " fill="#12AFD0" transform="translate(616,297)"/>
<path d="M0 0 C8.87845021 5.50463913 15.35927881 10.73879054 17.9375 21.25 C17.999375 22.466875 18.06125 23.68375 18.125 24.9375 C18.19847656 25.845 18.27195312 26.7525 18.34765625 27.6875 C18.72988163 35.37121021 17.26395562 40.48627867 13.125 46.9375 C12.1040625 48.54625 12.1040625 48.54625 11.0625 50.1875 C5.56255362 56.1288001 -2.00637393 59.17469435 -9.9753418 59.55126953 C-19.45989325 59.6023035 -26.0803235 57.75707443 -33.125 51.3125 C-40.14721369 43.67233151 -42.71866211 36.75938075 -42.2890625 26.3359375 C-41.23310173 17.66908968 -37.55742639 10.60303541 -30.875 4.9375 C-21.92327669 -1.37184715 -10.59993542 -3.88582319 0 0 Z " fill="#051C45" transform="translate(487.875,242.0625)"/>
<path d="M0 0 C5.73225007 4.64089747 9.36097757 10.23788717 10.73828125 17.5234375 C11.4038966 28.51889114 11.28028337 37.48042678 4.17578125 46.3359375 C-1.73714097 52.49657777 -7.85985327 54.69408814 -16.32421875 54.8984375 C-25.34702397 54.5287451 -32.8350334 53.38416914 -39.26171875 46.5234375 C-45.29375528 37.03383164 -46.30010969 27.54113317 -45.26171875 16.5234375 C-43.57475931 9.60208389 -39.25598984 3.43077199 -33.49609375 -0.76171875 C-23.7074913 -6.69871893 -9.57163742 -6.24884101 0 0 Z " fill="#07183A" transform="translate(749.26171875,528.4765625)"/>
<path d="M0 0 C4.62 0 9.24 0 14 0 C16.62203269 7.51111519 18.69696414 15.11215981 20.6875 22.8125 C21.00783203 24.02615234 21.32816406 25.23980469 21.65820312 26.49023438 C21.96048828 27.65490234 22.26277344 28.81957031 22.57421875 30.01953125 C22.84838623 31.07245361 23.12255371 32.12537598 23.4050293 33.21020508 C24 36 24 36 24 40 C24.66 40 25.32 40 26 40 C26.14115234 38.14761719 26.14115234 38.14761719 26.28515625 36.2578125 C26.95384109 30.2525761 28.67977574 24.63861721 30.4375 18.875 C31.0612215 16.78906955 31.68492001 14.70313223 32.30859375 12.6171875 C32.6010498 11.6487793 32.89350586 10.68037109 33.19482422 9.68261719 C34.16105845 6.46339895 35.08815469 3.2349889 36 0 C40.62 0 45.24 0 50 0 C52.15860996 4.77152265 53.75321811 9.36927154 55.04296875 14.46484375 C55.21629227 15.14301651 55.38961578 15.82118927 55.56819153 16.51991272 C56.11329392 18.65779567 56.65052472 20.797563 57.1875 22.9375 C57.55872305 24.39922114 57.9304632 25.86081107 58.30273438 27.32226562 C59.20779869 30.88001496 60.10582138 34.43949709 61 38 C63.00913225 34.98630162 63.6226214 33.03461047 64.4375 29.5546875 C64.69273437 28.47703125 64.94796875 27.399375 65.2109375 26.2890625 C65.47132813 25.16242187 65.73171875 24.03578125 66 22.875 C66.39058594 21.21984375 66.39058594 21.21984375 66.7890625 19.53125 C67.94505451 14.61536479 69.06889059 9.69610185 70.125 4.7578125 C71 1 71 1 72 0 C74.35313555 -0.07271741 76.70833668 -0.08370868 79.0625 -0.0625 C80.99802734 -0.04896484 80.99802734 -0.04896484 82.97265625 -0.03515625 C83.97167969 -0.02355469 84.97070312 -0.01195312 86 0 C84.06144513 7.98228478 81.63326949 15.85009736 79.3203125 23.73046875 C76.07615167 34.78855068 72.90429242 45.84751711 70 57 C65.05 57 60.1 57 55 57 C52.16758742 49.83408552 49.98592765 42.51386795 47.8125 35.125 C47.44447266 33.89007812 47.07644531 32.65515625 46.69726562 31.3828125 C44 22.25514552 44 22.25514552 44 20 C43.34 20 42.68 20 42 20 C41.90348145 20.55800293 41.80696289 21.11600586 41.70751953 21.69091797 C40.29093915 29.33368442 38.12719089 36.69197425 35.875 44.125 C35.50246094 45.36765625 35.12992188 46.6103125 34.74609375 47.890625 C33.8347899 50.92830451 32.91796065 53.96432548 32 57 C27.05 57 22.1 57 17 57 C16.25556641 54.55013672 16.25556641 54.55013672 15.49609375 52.05078125 C11.91571688 40.31835263 8.31437969 28.60750088 4.25952148 17.02856445 C2.32996322 11.40652017 1.06823245 5.84935048 0 0 Z " fill="#0B1B3A" transform="translate(763,525)"/>
<path d="M0 0 C3.98418676 3.42825372 6.26677398 7.43297592 7.0345459 12.68774414 C7.14735493 15.30126064 7.13816344 17.88478394 7.078125 20.5 C7.07246521 21.44311035 7.06680542 22.3862207 7.06097412 23.35791016 C7.03874585 26.34330978 6.9885756 29.32746874 6.9375 32.3125 C6.91741746 34.34763881 6.89916978 36.38279659 6.8828125 38.41796875 C6.83892557 43.38328391 6.76999314 48.34768227 6.6875 53.3125 C2.0675 53.3125 -2.5525 53.3125 -7.3125 53.3125 C-7.3125 51.3325 -7.3125 49.3525 -7.3125 47.3125 C-7.9725 47.3125 -8.6325 47.3125 -9.3125 47.3125 C-9.5909375 48.2096875 -9.5909375 48.2096875 -9.875 49.125 C-12.04819863 52.43204139 -14.58225463 53.46527107 -18.3125 54.3125 C-30.9217824 55.54086906 -30.9217824 55.54086906 -36.4375 52.6875 C-40.40152294 49.41287235 -42.68938904 46.18183287 -44.3125 41.3125 C-44.68076224 35.69650084 -44.52806007 32.13584011 -41.3125 27.3125 C-34.46877714 20.46877714 -26.66263872 18.90776891 -17.3125 18.125 C-16.44238281 18.04314453 -15.57226562 17.96128906 -14.67578125 17.87695312 C-12.55558794 17.67891309 -10.43414801 17.49429444 -8.3125 17.3125 C-8.62438292 12.31120008 -8.62438292 12.31120008 -11.3125 8.375 C-15.39211828 6.93013519 -19.03004575 6.71215595 -23.3125 7.3125 C-26.60181514 9.03939045 -27.1265267 9.7545801 -28.3125 13.3125 C-32.9325 13.3125 -37.5525 13.3125 -42.3125 13.3125 C-41.03991438 5.67698628 -37.83585851 1.91307414 -31.6875 -2.625 C-21.27557881 -7.28296474 -9.73856626 -4.9611564 0 0 Z " fill="#0C1C3D" transform="translate(486.3125,528.6875)"/>
<path d="M0 0 C4.62 0 9.24 0 14 0 C14.33 13.86 14.66 27.72 15 42 C18.63 38.04 22.26 34.08 26 30 C30.625 25.375 30.625 25.375 32.5390625 23.5234375 C34.10062291 22.04566676 34.10062291 22.04566676 35 20 C40.28 20 45.56 20 51 20 C49.25246432 23.49507136 48.09511643 25.14408452 45.41015625 27.78515625 C44.70826172 28.48060547 44.00636719 29.17605469 43.28320312 29.89257812 C42.55037109 30.60865234 41.81753906 31.32472656 41.0625 32.0625 C40.33353516 32.78244141 39.60457031 33.50238281 38.85351562 34.24414062 C37.49714001 35.58311087 36.13871817 36.92001378 34.77758789 38.25415039 C33.17591817 39.82722279 31.58467408 41.409831 30 43 C31.35940533 45.88446431 32.91183624 48.40420589 34.79296875 50.9765625 C35.33800049 51.72550781 35.88303223 52.47445312 36.44458008 53.24609375 C37.01974365 54.03113281 37.59490723 54.81617188 38.1875 55.625 C39.36237844 57.24189745 40.5368604 58.85908308 41.7109375 60.4765625 C42.27651367 61.25418945 42.84208984 62.03181641 43.42480469 62.83300781 C45.39825506 65.54787847 47.36468805 68.26665072 49.3125 71 C49.84488281 71.7425 50.37726562 72.485 50.92578125 73.25 C52 75 52 75 52 77 C40.41389865 78.29024076 40.41389865 78.29024076 35 77 C31.38989708 73.95837108 29.93962286 70.23654467 28 66 C26.60113333 63.76699431 25.16358952 61.55772813 23.6875 59.375 C23.03136719 58.37210938 22.37523437 57.36921875 21.69921875 56.3359375 C20.21137686 53.91392639 20.21137686 53.91392639 18 53 C17.690625 53.639375 17.38125 54.27875 17.0625 54.9375 C16 57 16 57 15 58 C14.84379445 59.41327947 14.74943827 60.8335459 14.68359375 62.25390625 C14.64169922 63.10791016 14.59980469 63.96191406 14.55664062 64.84179688 C14.51732422 65.73962891 14.47800781 66.63746094 14.4375 67.5625 C14.39431641 68.46419922 14.35113281 69.36589844 14.30664062 70.29492188 C14.20022016 72.52975156 14.09957519 74.76485486 14 77 C9.38 77 4.76 77 0 77 C0 51.59 0 26.18 0 0 Z " fill="#07193B" transform="translate(561,505)"/>
<path d="M0 0 C16.17 0 32.34 0 49 0 C49 3.96 49 7.92 49 12 C37.45 12 25.9 12 14 12 C14 18.93 14 25.86 14 33 C24.56 33 35.12 33 46 33 C46 37.29 46 41.58 46 46 C35.44 46 24.88 46 14 46 C14 56.23 14 66.46 14 77 C9.38 77 4.76 77 0 77 C0 51.59 0 26.18 0 0 Z " fill="#081B3D" transform="translate(622,505)"/>
<path d="M0 0 C19.47 0 38.94 0 59 0 C59 4.29 59 8.58 59 13 C51.74 13 44.48 13 37 13 C37 34.12 37 55.24 37 77 C32.05 77 27.1 77 22 77 C22 55.88 22 34.76 22 13 C14.74 13 7.48 13 0 13 C0 8.71 0 4.42 0 0 Z " fill="#0E1F3E" transform="translate(384,505)"/>
<path d="M0 0 C8.53385861 -0.33614945 14.29706739 1.2503967 21.07421875 6.44140625 C23.74742358 10.00567936 24.32398622 12.83220451 25.13671875 17.19140625 C22.86750339 17.32630016 20.59601205 17.4233462 18.32421875 17.50390625 C16.42736328 17.59091797 16.42736328 17.59091797 14.4921875 17.6796875 C11.13671875 17.19140625 11.13671875 17.19140625 9.25 14.734375 C8.88261719 13.89519531 8.51523437 13.05601562 8.13671875 12.19140625 C6.48822822 10.54291572 4.5862524 10.98114915 2.32421875 10.94140625 C1.45152344 10.915625 0.57882812 10.88984375 -0.3203125 10.86328125 C-3.34944457 11.254137 -4.69229281 12.07055611 -6.86328125 14.19140625 C-7.1975386 16.81765764 -7.1975386 16.81765764 -6.86328125 19.19140625 C-1.83461997 21.69409647 2.24677106 23.24607375 7.890625 23.734375 C14.28120811 25.03471974 20.36103281 28.37536381 24.88671875 33.00390625 C27.12191865 38.703666 27.02762243 43.78435737 24.63671875 49.44140625 C22.19547856 53.79393768 18.6635543 56.22724855 14.13671875 58.19140625 C5.76562653 60.48790058 -6.46775945 61.14905082 -14.23828125 57.00390625 C-18.01007377 54.35625581 -21.29959331 51.7960333 -22.31640625 47.09765625 C-22.57862053 45.13794952 -22.72954273 43.16404936 -22.86328125 41.19140625 C-11.07840659 40.2717773 -11.07840659 40.2717773 -8.14453125 42.4921875 C-7.11328125 44.12890625 -7.11328125 44.12890625 -5.86328125 47.19140625 C-3.9988755 49.055812 -0.98081955 48.36515052 1.51171875 48.37890625 C3.25582031 48.40017578 3.25582031 48.40017578 5.03515625 48.421875 C8.30469664 48.43440598 8.30469664 48.43440598 11.13671875 46.19140625 C11.38693445 43.10774754 11.38693445 43.10774754 11.13671875 40.19140625 C7.38682686 38.4361377 4.02851056 37.10097068 -0.05078125 36.37890625 C-7.51198468 34.8047587 -15.63762169 31.77559675 -20.11328125 25.31640625 C-22.16389712 21.26142901 -22.9340319 17.64711056 -21.86328125 13.19140625 C-19.49389173 7.68960346 -16.30831842 3.86054212 -10.86328125 1.19140625 C-7.18380317 0.43013492 -3.73590278 0.24973975 0 0 Z " fill="#0B1C3D" transform="translate(524.86328125,523.80859375)"/>
<path d="M0 0 C4.29 0 8.58 0 13 0 C13 25.41 13 50.82 13 77 C8.71 77 4.42 77 0 77 C0 51.59 0 26.18 0 0 Z " fill="#051839" transform="translate(681,505)"/>
<path d="M0 0 C3.47507092 2.31671395 4.83997113 4.17910379 6.8125 7.875 C7.37467773 11.05912311 7.37270705 14.1489054 7.3125 17.375 C7.32796875 18.20386719 7.3434375 19.03273438 7.359375 19.88671875 C7.32454152 25.36428333 6.43449791 28.53397839 2.8125 32.875 C-0.85005484 36.01433272 -4.28628079 36.46061035 -8.97265625 36.2890625 C-12.75210786 35.58249836 -14.65031536 33.65382127 -17.1875 30.875 C-21.23414662 24.13704294 -21.06442616 17.52966387 -20.1875 9.875 C-18.61781056 5.49537267 -16.33387451 2.840368 -12.8125 -0.125 C-8.21050007 -1.87814283 -4.6072449 -1.62608644 0 0 Z " fill="#F5F7F7" transform="translate(738.1875,536.125)"/>
<path d="M0 0 C0.86051909 9.6760591 0.86051909 9.6760591 -2.25 13.5 C-6.64981532 17.49983211 -9.92888622 18.53013667 -15.8046875 18.375 C-18 18 -18 18 -21.0625 15.9375 C-23.50272587 12.23780272 -23.79082445 10.3495345 -23 6 C-19.56377319 1.61584856 -14.97355649 1.11229424 -9.73828125 0.3046875 C-6.44138002 -0.06215743 -3.31175308 -0.14718903 0 0 Z " fill="#EEEEF0" transform="translate(479,555)"/>
<path d="M0 0 C0 0.33 0 0.66 0 1 C-3.96 1 -7.92 1 -12 1 C-12.33 1.66 -12.66 2.32 -13 3 C-16.02470156 4.80858444 -19.11554409 6.47134329 -22.21484375 8.1484375 C-25.06439309 10.04280831 -25.85059622 10.88276879 -27 14 C-29 18 -31 22 -33 26 C-34.47780029 21.68326757 -33.26954575 19.34144154 -31.3515625 15.375 C-24.10871828 2.64768993 -14.21610379 -1.00270325 0 0 Z " fill="#2F9DE6" transform="translate(486,364)"/>
<path d="M0 0 C0.66 0 1.32 0 2 0 C2.5345256 1.24420647 3.05208611 2.49570936 3.5625 3.75 C3.85253906 4.44609375 4.14257812 5.1421875 4.44140625 5.859375 C5.07831803 8.30012784 4.80248831 9.6403655 4 12 C4 11.01 4 10.02 4 9 C1.46414701 10.01434119 0.21863205 10.65018872 -1.25 13 C-2.11704115 14.95610957 -2.11704115 14.95610957 -2 17 C-2.99 17.33 -3.98 17.66 -5 18 C-1.92482916 5.33029613 -1.92482916 5.33029613 0 0 Z " fill="#D2D3D3" transform="translate(805,545)"/>
<path d="M0 0 C0.99 0.33 1.98 0.66 3 1 C-3.14659182 6.58241189 -9.46888353 11.87327809 -16 17 C-16.66 16.67 -17.32 16.34 -18 16 C-5.05977528 2.58247191 -5.05977528 2.58247191 0 0 Z " fill="#109BD9" transform="translate(513,351)"/>
<path d="M0 0 C0.33 0 0.66 0 1 0 C1.06058594 0.94101562 1.12117188 1.88203125 1.18359375 2.8515625 C1.26738281 4.09679687 1.35117187 5.34203125 1.4375 6.625 C1.55931641 8.46964844 1.55931641 8.46964844 1.68359375 10.3515625 C1.96663944 13.61532388 2.41038953 16.77943859 3 20 C2.01 19.67 1.02 19.34 0 19 C-2.17710631 13.38535741 -3.30386514 7.25966285 -1 1.5 C-0.67 1.005 -0.34 0.51 0 0 Z " fill="#108EDE" transform="translate(454,386)"/>
<path d="M0 0 C8.32070224 0.7362224 16.2310317 2.8731825 24.27734375 5.01953125 C24.27734375 5.67953125 24.27734375 6.33953125 24.27734375 7.01953125 C19.65734375 6.35953125 15.03734375 5.69953125 10.27734375 5.01953125 C10.27734375 4.35953125 10.27734375 3.69953125 10.27734375 3.01953125 C9.28734375 3.34953125 8.29734375 3.67953125 7.27734375 4.01953125 C3.73340115 3.48793986 0.49536816 2.62854346 -2.72265625 1.01953125 C-1.72265625 0.01953125 -1.72265625 0.01953125 0 0 Z " fill="#1F96DB" transform="translate(598.72265625,249.98046875)"/>
<path d="M0 0 C5.28 0 10.56 0 16 0 C14.193388 3.61322401 13.33581029 4.83748791 10.375 7.25 C9.74335937 7.77078125 9.11171875 8.2915625 8.4609375 8.828125 C7.97882812 9.21484375 7.49671875 9.6015625 7 10 C7.55144911 5.91927658 7.91330796 5.08669204 11 2 C7.37 1.67 3.74 1.34 0 1 C0 0.67 0 0.34 0 0 Z " fill="#273557" transform="translate(596,525)"/>
<path d="M0 0 C-2.41079118 3.31483788 -5.20831827 3.63714309 -8.9921875 4.4609375 C-11.65042592 5.17462797 -13.74413868 6.44909534 -16 8 C-16.33 6.68 -16.66 5.36 -17 4 C-5.47835991 -0.59225513 -5.47835991 -0.59225513 0 0 Z " fill="#2667D1" transform="translate(520,252)"/>
<path d="M0 0 C0.33 0 0.66 0 1 0 C0.88512252 1.58409994 0.75765492 3.16728963 0.625 4.75 C0.55539062 5.63171875 0.48578125 6.5134375 0.4140625 7.421875 C0.00149945 9.99066382 -0.71160957 11.75841015 -2 14 C-2.66 13.67 -3.32 13.34 -4 13 C-4.59355614 10.35139573 -4.74209269 7.70802678 -5 5 C-4.360625 4.731875 -3.72125 4.46375 -3.0625 4.1875 C-0.66868314 3.11332248 -0.66868314 3.11332248 0 0 Z " fill="#DBDCE0" transform="translate(827,550)"/>
<path d="M0 0 C0.66 0.33 1.32 0.66 2 1 C1.38125 1.556875 0.7625 2.11375 0.125 2.6875 C-4.28492876 7.48654012 -4.21094896 11.77700574 -4 18 C-4.99 18 -5.98 18 -7 18 C-7.29128045 12.36857798 -7.11798003 8.89968291 -4 4 C-1.8125 1.625 -1.8125 1.625 0 0 Z " fill="#1C2742" transform="translate(449,552)"/>
<path d="M0 0 C-0.35010941 9.17286652 -0.35010941 9.17286652 -3.0625 12.625 C-3.701875 13.07875 -4.34125 13.5325 -5 14 C-4.85769192 12.58297487 -4.71099254 11.1663904 -4.5625 9.75 C-4.48128906 8.96109375 -4.40007813 8.1721875 -4.31640625 7.359375 C-4.02048007 5.15271556 -3.70573121 3.11251991 -3 1 C-1 0 -1 0 0 0 Z " fill="#18243F" transform="translate(832,545)"/>
<path d="M0 0 C4.62 0 9.24 0 14 0 C14 0.99 14 1.98 14 3 C13.39671875 2.97679687 12.7934375 2.95359375 12.171875 2.9296875 C11.37265625 2.91164063 10.5734375 2.89359375 9.75 2.875 C8.56664062 2.84019531 8.56664062 2.84019531 7.359375 2.8046875 C4.79268059 3.0171622 3.2083933 3.71345895 1 5 C0.67 3.35 0.34 1.7 0 0 Z " fill="#384461" transform="translate(763,525)"/>
<path d="M0 0 C1.03253906 0.00676758 1.03253906 0.00676758 2.0859375 0.01367188 C3.76566335 0.02533664 5.44534375 0.04326729 7.125 0.0625 C6.795 0.7225 6.465 1.3825 6.125 2.0625 C-3.28 2.5575 -3.28 2.5575 -12.875 3.0625 C-13.205 2.4025 -13.535 1.7425 -13.875 1.0625 C-9.21962644 0.14157719 -4.72814567 -0.05955997 0 0 Z " fill="#065DD2" transform="translate(553.875,247.9375)"/>
<path d="M0 0 C2.9156164 3.54039134 5.50127818 7.1626772 8 11 C5 11 5 11 2.375 9.375 C-0.44519145 6.55480855 -0.82538311 4.92888009 -1 1 C-0.67 0.67 -0.34 0.34 0 0 Z " fill="#192846" transform="translate(445,570)"/>
<path d="M0 0 C0.66 0.33 1.32 0.66 2 1 C1.20890398 2.27118864 0.41709922 3.54193623 -0.375 4.8125 C-0.81585937 5.52019531 -1.25671875 6.22789062 -1.7109375 6.95703125 C-2.78188476 8.65432039 -3.88676239 10.33014358 -5 12 C-5.99 12 -6.98 12 -8 12 C-6.49087042 7.01987239 -3.44338151 3.75740058 0 0 Z " fill="#1B2948" transform="translate(714,529)"/>
<path d="M0 0 C0.66 0 1.32 0 2 0 C1.35812082 5.13503344 0.31727753 9.9943454 -1 15 C-3.1272354 11.60749448 -3.07084862 9.67073881 -2.1875 5.8125 C-1.99542969 4.93207031 -1.80335938 4.05164063 -1.60546875 3.14453125 C-1 1 -1 1 0 0 Z " fill="#17243A" transform="translate(839,550)"/>
<path d="M0 0 C0 3.20395416 -0.74335022 5.09399739 -2 8 C-2.66 8 -3.32 8 -4 8 C-4.103125 8.639375 -4.20625 9.27875 -4.3125 9.9375 C-4.539375 10.618125 -4.76625 11.29875 -5 12 C-5.99 12.33 -6.98 12.66 -8 13 C-6.63589551 7.40717158 -3.84616474 4.08806189 0 0 Z " fill="#1D2D50" transform="translate(456,248)"/>
<path d="M0 0 C0.33 0.99 0.66 1.98 1 3 C-0.21484375 4.82421875 -0.21484375 4.82421875 -1.9375 6.6875 C-2.50339844 7.31011719 -3.06929687 7.93273437 -3.65234375 8.57421875 C-4.09707031 9.04472656 -4.54179688 9.51523437 -5 10 C-6.32 9.67 -7.64 9.34 -9 9 C-6.03 6.03 -3.06 3.06 0 0 Z " fill="#132243" transform="translate(593,529)"/>
<path d="M0 0 C0.33 0 0.66 0 1 0 C1.67090715 7.24579719 -0.41874318 11.75838097 -4 18 C-4.33 18 -4.66 18 -5 18 C-5.52123987 13.69977109 -4.19900615 11.39376079 -1.95703125 7.78125 C-0.60952099 5.27323091 -0.27400224 2.80852298 0 0 Z " fill="#293352" transform="translate(505,271)"/>
<path d="M0 0 C2.96404505 2.80804268 5.44499019 5.18315774 7 9 C6.34 9.66 5.68 10.32 5 11 C3.02 8.03 1.04 5.06 -1 2 C-0.67 1.34 -0.34 0.68 0 0 Z " fill="#162645" transform="translate(584,560)"/>
<path d="M0 0 C0.66 0 1.32 0 2 0 C2 0.99 2 1.98 2 3 C2.99 2.67 3.98 2.34 5 2 C4.67 4.97 4.34 7.94 4 11 C3.34 11 2.68 11 2 11 C1.34 7.37 0.68 3.74 0 0 Z " fill="#D7D8D9" transform="translate(785,554)"/>
<path d="M0 0 C0.33 0 0.66 0 1 0 C1.24901747 2.91620455 1.47485086 5.83111077 1.6875 8.75 C1.76033203 9.575 1.83316406 10.4 1.90820312 11.25 C2.33135078 17.42297754 2.33135078 17.42297754 0.51953125 20.578125 C0.01808594 21.04734375 -0.48335937 21.5165625 -1 22 C-1.66 21.67 -2.32 21.34 -3 21 C-2.68289063 20.52046875 -2.36578125 20.0409375 -2.0390625 19.546875 C-0.52584233 15.83777894 -0.53308589 12.22190798 -0.375 8.25 C-0.33632813 7.45722656 -0.29765625 6.66445313 -0.2578125 5.84765625 C-0.163892 3.89880584 -0.08087178 1.94943549 0 0 Z " fill="#4C556B" transform="translate(745,546)"/>
<path d="M0 0 C1.72217143 2.63390925 2.00455315 3.92411417 1.8125 7.125 C1 10 1 10 -2 12 C-1.85831863 10.56208484 -1.71148957 9.1246763 -1.5625 7.6875 C-1.48128906 6.88699219 -1.40007813 6.08648438 -1.31640625 5.26171875 C-1 3 -1 3 0 0 Z " fill="#21304C" transform="translate(791,553)"/>
<path d="M0 0 C0.66 0.66 1.32 1.32 2 2 C-0.97 4.64 -3.94 7.28 -7 10 C-7.66 9.67 -8.32 9.34 -9 9 C-6.03 6.03 -3.06 3.06 0 0 Z " fill="#189EE0" transform="translate(504,358)"/>
<path d="M0 0 C0.97582031 0.00902344 1.95164062 0.01804687 2.95703125 0.02734375 C3.69308594 0.03894531 4.42914062 0.05054688 5.1875 0.0625 C5.1875 0.3925 5.1875 0.7225 5.1875 1.0625 C2.5475 1.0625 -0.0925 1.0625 -2.8125 1.0625 C-2.8125 1.7225 -2.8125 2.3825 -2.8125 3.0625 C-5.4525 2.7325 -8.0925 2.4025 -10.8125 2.0625 C-10.8125 1.7325 -10.8125 1.4025 -10.8125 1.0625 C-7.13862505 0.20951624 -3.7677607 -0.04539471 0 0 Z " fill="#243350" transform="translate(731.8125,523.9375)"/>
<path d="M0 0 C1.5 1.375 1.5 1.375 3 3 C3 3.66 3 4.32 3 5 C-2.61 5 -8.22 5 -14 5 C-14 4.67 -14 4.34 -14 4 C-9.38 4 -4.76 4 0 4 C0 2.68 0 1.36 0 0 Z " fill="#212D46" transform="translate(610,577)"/>
<path d="M0 0 C-1.65 1.32 -3.3 2.64 -5 4 C-6.32 3.34 -7.64 2.68 -9 2 C-8 0 -8 0 -6.1875 -0.6875 C-3.81180233 -1.02688538 -2.26664171 -0.72856341 0 0 Z " fill="#1B98E1" transform="translate(526,361)"/>
<path d="M0 0 C-1.75864246 2.1793144 -2.69396 2.93686419 -5.48046875 3.51171875 C-6.37378906 3.56972656 -7.26710938 3.62773437 -8.1875 3.6875 C-9.08855469 3.75324219 -9.98960937 3.81898438 -10.91796875 3.88671875 C-11.94857422 3.94279297 -11.94857422 3.94279297 -13 4 C-12 2 -12 2 -9.3125 0.875 C-6.0420565 0.01110926 -3.36293818 -0.16013991 0 0 Z " fill="#0B5BD4" transform="translate(533,250)"/>
<path d="M0 0 C2 2 2 2 2.1875 4.5625 C2 7 2 7 1 8 C-1.33297433 8.04092937 -3.66705225 8.04241723 -6 8 C-2.25 6 -2.25 6 0 6 C0 4.02 0 2.04 0 0 Z " fill="#B3B5C1" transform="translate(477,539)"/>
<path d="M0 0 C2.56616632 3.84924948 2.55097676 6.4349304 3 11 C2.67 10.34 2.34 9.68 2 9 C1.34 9 0.68 9 0 9 C0 6.03 0 3.06 0 0 Z " fill="#25334C" transform="translate(819,547)"/>
<path d="M0 0 C0.99 0 1.98 0 3 0 C2.50168276 3.68754757 1.89932357 5.60490662 -1 8 C-1.125 2.25 -1.125 2.25 0 0 Z " fill="#1E2D46" transform="translate(755,565)"/>
<path d="M0 0 C0.33 0 0.66 0 1 0 C0.67 2.31 0.34 4.62 0 7 C-0.66 7 -1.32 7 -2 7 C-2.125 4.625 -2.125 4.625 -2 2 C-1.34 1.34 -0.68 0.68 0 0 Z " fill="#01112B" transform="translate(794,550)"/>
<path d="M0 0 C0.66 0.33 1.32 0.66 2 1 C1.67 1.66 1.34 2.32 1 3 C1.99 3.33 2.98 3.66 4 4 C3.67 4.99 3.34 5.98 3 7 C1.68 6.01 0.36 5.02 -1 4 C-0.67 2.68 -0.34 1.36 0 0 Z " fill="#0B1F4D" transform="translate(452,285)"/>
</svg>
