<?xml version="1.0" standalone="no"?>
<!DOCTYPE svg PUBLIC "-//W3C//DTD SVG 20010904//EN"
 "http://www.w3.org/TR/2001/REC-SVG-20010904/DTD/svg10.dtd">
<svg version="1.0" xmlns="http://www.w3.org/2000/svg"
 width="1248.000000pt" height="832.000000pt" viewBox="0 0 1248.000000 832.000000"
 preserveAspectRatio="xMidYMid meet">

<g transform="translate(0.000000,832.000000) scale(0.100000,-0.100000)"
fill="#000000" stroke="none">
<path d="M4651 5889 c-143 -57 -222 -225 -176 -374 23 -72 91 -149 160 -181
71 -33 180 -33 251 0 94 44 157 127 172 228 l7 53 61 16 c135 36 293 53 504
53 178 -1 224 -4 345 -27 77 -14 157 -30 178 -36 38 -9 53 3 17 14 -17 6 -18
8 -6 21 8 8 21 14 29 14 8 0 14 8 13 18 0 10 6 16 16 16 10 -1 16 3 15 9 -1 6
14 14 33 17 33 5 31 6 -40 27 -179 54 -395 83 -611 83 -185 0 -323 -18 -569
-74 -21 -4 -30 2 -55 36 -16 22 -54 55 -84 71 -73 41 -180 48 -260 16z"/>
<path d="M6320 5566 c0 -2 7 -6 15 -10 8 -3 15 -1 15 4 0 6 -7 10 -15 10 -8 0
-15 -2 -15 -4z"/>
<path d="M6367 5549 c7 -7 15 -10 18 -7 3 3 -2 9 -12 12 -14 6 -15 5 -6 -5z"/>
<path d="M6405 5530 c3 -5 11 -10 16 -10 6 0 7 5 4 10 -3 6 -11 10 -16 10 -6
0 -7 -4 -4 -10z"/>
<path d="M5119 4789 c-35 -28 -88 -74 -117 -102 -52 -51 -52 -51 -85 -37 -20
9 -65 15 -118 15 -78 0 -90 -3 -135 -30 -29 -19 -64 -53 -88 -87 -35 -51 -39
-65 -44 -131 -5 -82 7 -130 46 -190 18 -27 28 -34 33 -25 6 9 9 7 9 -9 0 -24
47 -57 98 -68 26 -5 33 -3 39 11 9 25 53 65 64 59 4 -3 13 3 19 14 9 17 8 19
-5 15 -8 -4 -15 -1 -15 5 0 6 6 11 14 11 8 0 13 9 12 23 -1 12 -7 21 -14 19
-15 -3 -16 54 -1 64 8 5 6 10 -5 16 -14 8 -15 13 -5 24 6 8 19 14 28 14 14 0
14 -2 1 -10 -8 -5 -10 -10 -4 -10 6 0 14 3 17 7 9 8 -13 34 -23 28 -5 -3 -12
0 -16 6 -4 8 -3 9 4 5 7 -4 12 -2 12 4 0 6 4 8 10 5 5 -3 21 5 35 19 22 22 29
24 27 5 -1 -3 6 -6 13 -6 11 0 12 4 4 14 -9 10 -8 13 1 13 7 0 10 7 6 15 -3 9
0 15 8 15 8 0 16 -6 19 -12 2 -7 4 1 3 19 -1 17 -4 29 -7 27 -4 -2 -17 5 -29
16 -21 18 -17 25 11 22 4 -1 4 8 1 20 -3 14 -1 19 6 14 6 -3 17 1 24 9 7 9 22
25 33 36 11 11 20 26 20 32 0 7 12 12 27 11 15 -1 26 3 25 9 -1 5 7 11 17 13
10 1 22 7 25 13 3 5 18 12 33 16 21 5 27 14 31 43 2 21 3 38 2 39 -1 2 -30
-20 -66 -48z m-201 -177 c20 -31 1 -27 -22 5 -12 16 -14 24 -6 21 7 -2 20 -14
28 -26z"/>
<path d="M5137 4714 c-3 -5 3 -19 13 -32 l18 -22 36 21 c20 11 34 24 31 29 -7
12 -59 9 -67 -4 -6 -8 -10 -7 -17 3 -5 7 -11 9 -14 5z"/>
<path d="M5045 4570 c-3 -5 1 -10 10 -10 9 0 13 5 10 10 -3 6 -8 10 -10 10 -2
0 -7 -4 -10 -10z"/>
<path d="M5025 4541 c3 -6 -3 -14 -12 -20 -14 -8 -15 -11 -3 -12 8 -1 18 -1
23 0 4 1 12 -10 17 -24 5 -14 15 -25 22 -25 10 0 10 2 1 8 -6 4 -14 24 -18 45
-4 22 -13 37 -22 37 -8 0 -12 -4 -8 -9z"/>
<path d="M5082 4370 c0 -14 2 -19 5 -12 2 6 2 18 0 25 -3 6 -5 1 -5 -13z"/>
<path d="M4906 4146 c-21 -10 -25 -15 -15 -21 7 -5 14 -4 17 3 2 7 10 12 17
12 8 0 17 5 20 10 8 13 -3 12 -39 -4z"/>
<path d="M4798 4113 c7 -3 16 -2 19 1 4 3 -2 6 -13 5 -11 0 -14 -3 -6 -6z"/>
<path d="M3840 3205 l0 -65 110 0 110 0 0 -320 0 -320 75 0 75 0 0 320 0 320
105 0 105 0 0 65 0 65 -290 0 -290 0 0 -65z"/>
<path d="M5610 2885 l0 -385 70 0 70 0 0 93 c0 89 1 94 28 120 l28 27 82 -120
83 -120 79 0 c44 0 80 2 80 5 0 3 -52 78 -115 166 l-115 161 108 110 c59 60
109 114 110 119 2 5 -29 9 -71 9 l-75 0 -111 -116 -111 -116 0 216 0 216 -70
0 -70 0 0 -385z"/>
<path d="M6220 2885 l0 -385 70 0 70 0 0 155 0 155 88 2 c48 2 119 3 157 3
l70 0 3 63 3 62 -161 0 -161 0 3 103 3 102 173 3 172 2 0 60 0 60 -245 0 -245
0 0 -385z"/>
<path d="M6810 2885 l0 -385 65 0 65 0 0 385 0 385 -65 0 -65 0 0 -385z"/>
<path d="M4610 3071 c-74 -15 -127 -58 -155 -123 -8 -21 -15 -40 -15 -43 0 -3
29 -5 65 -5 54 0 66 3 75 20 40 74 188 60 205 -20 4 -17 4 -34 1 -37 -3 -3
-52 -12 -108 -19 -113 -15 -198 -50 -231 -96 -53 -72 -20 -193 63 -235 78 -40
198 -27 257 29 l23 21 0 -31 0 -32 69 0 68 0 -4 218 c-4 186 -8 223 -24 257
-39 83 -158 122 -289 96z m178 -357 c-7 -78 -44 -115 -122 -122 -48 -4 -57 -2
-80 21 -30 30 -34 71 -11 104 14 20 61 35 150 46 72 9 68 12 63 -49z"/>
<path d="M5158 3065 c-112 -36 -157 -146 -98 -242 24 -40 70 -64 180 -92 107
-29 130 -43 130 -81 0 -41 -32 -60 -101 -60 -60 0 -102 22 -114 60 -5 17 -15
20 -72 20 l-66 0 6 -35 c8 -48 41 -91 90 -118 36 -19 57 -22 152 -22 94 0 116
4 152 22 54 29 82 71 90 130 12 104 -40 154 -202 193 -105 25 -135 41 -135 74
0 34 33 58 87 63 39 4 53 1 76 -17 15 -12 27 -28 27 -36 0 -11 16 -14 70 -14
l70 0 -6 28 c-21 88 -90 134 -212 139 -49 2 -94 -3 -124 -12z"/>
<path d="M7220 3065 c-60 -19 -109 -62 -145 -126 -28 -50 -30 -61 -30 -159 0
-117 14 -158 76 -219 56 -57 84 -66 194 -66 117 0 159 17 219 87 63 74 84 204
50 317 -41 139 -207 214 -364 166z m177 -121 c41 -26 57 -72 57 -159 0 -129
-38 -180 -134 -180 -51 0 -63 4 -90 30 -16 16 -35 47 -41 70 -14 52 -6 152 15
194 33 63 130 86 193 45z"/>
<path d="M7630 3062 c0 -5 9 -35 19 -68 30 -89 151 -484 151 -489 0 -3 33 -5
73 -5 l72 0 54 181 c30 99 57 182 61 184 4 2 24 -51 44 -118 21 -67 47 -150
58 -185 l20 -63 71 3 71 3 47 160 c26 88 63 213 82 277 19 64 32 119 29 122
-6 7 -132 8 -132 2 0 -10 -91 -363 -98 -380 -6 -14 -18 19 -45 118 -21 74 -47
165 -58 201 l-20 65 -65 0 c-52 0 -66 -3 -71 -17 -4 -10 -31 -101 -59 -203
-31 -109 -55 -178 -59 -169 -3 9 -28 99 -54 200 l-48 184 -71 3 c-40 2 -72 -1
-72 -6z"/>
</g>
</svg>
